<?xml version="1.0" encoding="UTF-8" standalone="no"?>
<svg
   version="1.1"
   x="0px"
   y="0px"
   viewBox="0 0 90 72.421211"
   xml:space="preserve"
   id="svg8"
   sodipodi:docname="laurelAmarelo.svg"
   width="90"
   height="72.421211"
   inkscape:version="1.2.2 (732a01da63, 2022-12-09)"
   xmlns:inkscape="http://www.inkscape.org/namespaces/inkscape"
   xmlns:sodipodi="http://sodipodi.sourceforge.net/DTD/sodipodi-0.dtd"
   xmlns="http://www.w3.org/2000/svg"
   xmlns:svg="http://www.w3.org/2000/svg"><defs
     id="defs12" /><sodipodi:namedview
     id="namedview10"
     pagecolor="#ffffff"
     bordercolor="#000000"
     borderopacity="0.25"
     inkscape:showpageshadow="2"
     inkscape:pageopacity="0.0"
     inkscape:pagecheckerboard="0"
     inkscape:deskcolor="#d1d1d1"
     showgrid="false"
     showguides="true"
     inkscape:zoom="6.432"
     inkscape:cx="31.716418"
     inkscape:cy="41.277985"
     inkscape:window-width="1920"
     inkscape:window-height="991"
     inkscape:window-x="-9"
     inkscape:window-y="-9"
     inkscape:window-maximized="1"
     inkscape:current-layer="svg8" /><path
     d="m 79.451271,46.374925 c 1.334931,0.381027 4.026772,0.812378 6.381615,-1.308548 1.297203,-1.342121 2.42115,-2.991772 3.082321,-4.405068 0.635025,-1.420486 0.990974,-2.564754 1.084793,-2.87704 -0.535805,0.09803 -3.838547,0.917244 -6.844223,2.540454 -1.003097,0.495224 -1.739365,1.164528 -2.325371,1.867703 0.503662,-1.845303 0.877617,-3.723816 1.076058,-5.628655 0.05746,-0.361717 0.08282,-0.726524 0.100471,-1.091983 1.364578,-0.02412 4.130989,-0.382332 5.780518,-3.148384 1.856834,-3.343506 1.89521,-7.545315 1.831283,-8.174935 -0.485779,0.253166 -3.32978,2.000675 -5.804703,4.451473 -0.628662,0.647858 -1.108734,1.36327 -1.473426,2.081356 -0.09274,0.179077 -0.172005,0.358273 -0.242112,0.536751 -0.0011,-0.01539 1.23e-4,-0.03083 -0.0011,-0.04622 -0.03137,-0.899478 -0.06856,-1.798008 -0.19429,-2.69012 L 81.75035,27.141491 c -0.06197,-0.445015 -0.158043,-0.885219 -0.235581,-1.327801 -0.08959,-0.494213 -0.213715,-0.98064 -0.323868,-1.470337 0.478112,-0.152874 1.161141,-0.418102 1.872162,-0.858661 1.127274,-0.707749 2.415741,-1.924145 2.799919,-3.903309 0.168022,-0.9277 0.292732,-1.904362 0.267777,-2.814892 -0.01978,-0.912491 -0.09993,-1.791769 -0.203377,-2.573727 -0.275978,-1.534444 -0.637871,-2.676752 -0.736206,-2.988084 -0.397843,0.391126 -2.60997,2.924511 -4.219513,5.995361 -0.438957,0.819744 -0.651901,1.63521 -0.768883,2.423109 -0.05134,0.294342 -0.06797,0.57579 -0.08615,0.857178 -0.778274,-2.264653 -1.789513,-4.443865 -2.986542,-6.51429 0.414063,-0.287211 1.011834,-0.756232 1.587441,-1.419239 0.444122,-0.515246 0.881592,-1.15633 1.175934,-1.917849 0.280555,-0.7524874 0.428383,-1.6340244 0.334983,-2.6457384 -0.374847,-3.816861 -2.725891,-7.29790999 -3.14167,-7.77043599 -0.244735,0.474605 -1.611809,3.54907999 -2.232216,6.95972299 -0.141105,0.884804 -0.160659,1.773885 -0.02775,2.553346 0.05787,0.3702744 0.147293,0.7182664 0.246933,1.0531284 C 74.2105,9.5866966 73.271749,8.4518756 72.271268,7.3733786 72.261568,6.8701946 72.197888,6.1890656 71.96623,5.4421036 71.597204,4.0928546 70.694455,2.5228806 69.013738,1.5906626 67.437757,0.70158061 65.739209,0.29827361 64.43678,0.10844361 c -1.336174,-0.145032 -2.280037,-0.107362 -2.539207,-0.09394 0.128631,0.234094 0.607757,1.08152699 1.3218,2.10310299 0.688736,1.07101 1.592018,2.326562 2.621437,3.519195 1.092873,1.247411 2.516213,1.801275 3.77771,2.139463 0.712555,0.16547 1.355187,0.262436 1.836922,0.318048 0.945167,1.050095 1.828491,2.1528324 2.640037,3.3066684 -0.274795,-0.170285 -0.562362,-0.331536 -0.871261,-0.462961 -0.715233,-0.292439 -1.474259,-0.491538 -2.367913,-0.403485 -3.297752,0.261484 -6.031128,2.084685 -6.469726,2.359894 0.377693,0.19488 2.472008,1.468731 5.306686,2.35811 0.740242,0.242888 1.522499,0.316086 2.285797,0.290183 0.749398,-0.01789 1.467781,-0.129643 2.120453,-0.291668 0.821175,-0.200762 1.516625,-0.476803 1.975182,-0.685706 1.12413,2.015645 2.065613,4.130215 2.781563,6.319947 -0.172776,-0.200051 -0.342881,-0.402478 -0.544777,-0.583573 -0.584107,-0.49641 -1.319832,-0.885044 -2.158059,-1.083309 -3.223548,-0.729671 -6.378883,0.201298 -6.855987,0.323395 0.124481,0.156437 0.59433,0.701389 1.37783,1.389114 0.357201,0.3597 0.792061,0.756947 1.305222,1.165303 0.518097,0.406574 1.024788,0.856521 1.656006,1.272842 2.012917,1.438313 4.857155,1.40884 6.201714,1.263691 0.09904,0.474247 0.211517,0.945763 0.290596,1.423695 0.06791,0.426956 0.154594,0.851116 0.207473,1.279972 l 0.126259,1.290844 c 0.108612,0.858486 0.129936,1.722969 0.146698,2.587276 0.0011,0.01693 -5.95e-4,0.03392 3.51e-4,0.05086 -0.08645,-0.169274 -0.179428,-0.336823 -0.276634,-0.500809 -0.391479,-0.649994 -0.944397,-1.242954 -1.720352,-1.680546 -2.837708,-1.667354 -6.152809,-1.718746 -6.655518,-1.743999 0.189232,0.374908 1.197922,2.605457 3.030625,4.962379 1.412048,1.956406 4.121841,2.774132 5.470611,3.043041 -0.02187,0.347638 -0.05115,0.694439 -0.111999,1.037857 -0.21621,1.807042 -0.601929,3.58265 -1.104637,5.324334 -0.179909,-0.859257 -0.555642,-1.727188 -1.197678,-2.459416 -2.301491,-2.443786 -5.383926,-3.463756 -5.859657,-3.637012 0.01568,0.20005 0.08787,0.914928 0.351372,1.928486 0.233917,1.008621 0.4831,2.285446 1.083671,3.697197 0.752487,2.223003 2.996697,3.79179 4.228249,4.482189 -0.07986,0.198978 -0.148659,0.402653 -0.231125,0.600445 -0.773224,1.732891 -1.702294,3.385273 -2.735871,4.968971 0.0035,-0.05858 0.01842,-0.113121 0.02026,-0.172127 0.02454,-0.771141 -0.095,-1.574306 -0.448638,-2.354484 -1.423935,-2.999791 -4.103058,-4.917935 -4.494309,-5.219941 -0.04331,0.196129 -0.182579,0.901917 -0.226959,1.951004 -0.04474,0.513638 -0.125847,1.082653 -0.138619,1.735028 -0.03707,0.637104 0.03791,1.391494 0.03803,2.106193 0.07355,2.317944 1.685715,4.44933 2.660355,5.49812 -0.05128,0.06274 -0.09756,0.129524 -0.149193,0.19197 -1.27848,1.495232 -2.698967,2.853508 -4.203293,4.110428 0.243782,-0.717964 0.351914,-1.522209 0.243599,-2.361198 -0.185371,-1.594635 -0.838577,-3.116005 -1.42868,-4.232826 -0.594208,-1.120499 -1.150513,-1.876557 -1.303803,-2.085518 -0.107239,0.167434 -0.411087,0.841667 -0.799247,1.799553 -0.214486,0.459518 -0.43705,1.004524 -0.642388,1.626304 -0.102669,0.310852 -0.201118,0.640847 -0.29232,0.988541 -0.104218,0.331833 -0.216332,0.662529 -0.309311,1.019852 -0.403191,1.494873 -0.112061,3.154922 0.275024,4.422355 0.184365,0.60508 0.408539,1.135361 0.60859,1.551857 -1.675377,1.082115 -3.453843,1.978745 -5.286072,2.74775 0.387207,-0.594559 0.689506,-1.272011 0.820343,-2.04464 0.280494,-1.609184 0.150314,-3.174347 -0.100533,-4.449745 -0.238968,-1.252281 -0.548156,-2.142372 -0.633125,-2.388176 -0.281742,0.311455 -1.996212,2.078682 -3.557037,4.568931 -0.81844,1.333985 -1.039166,2.992905 -1.056454,4.293785 -0.0042,0.596703 0.04504,1.137558 0.106113,1.581444 -3.125511,0.850998 -6.354877,1.21521 -9.583,1.276345 -3.228123,-0.06114 -6.457489,-0.425347 -9.583,-1.276345 0.06108,-0.443885 0.110332,-0.984741 0.106113,-1.581443 -0.01729,-1.300881 -0.238014,-2.959801 -1.056454,-4.293785 -1.560825,-2.49025 -3.275295,-4.257477 -3.557041,-4.568932 -0.08496,0.245804 -0.394157,1.135895 -0.633121,2.388176 -0.250851,1.275398 -0.381027,2.840561 -0.100529,4.449745 0.130829,0.772629 0.433132,1.449959 0.820339,2.044579 -1.832233,-0.768944 -3.610695,-1.665573 -5.28607,-2.747628 0.200108,-0.416503 0.424221,-0.946838 0.608586,-1.551918 0.387087,-1.267433 0.678219,-2.927482 0.27503,-4.422355 -0.09292,-0.357323 -0.205099,-0.688019 -0.309313,-1.019852 -0.0912,-0.347694 -0.189651,-0.677689 -0.29232,-0.988541 -0.205338,-0.62178 -0.427906,-1.166786 -0.642334,-1.626304 -0.388214,-0.957886 -0.692063,-1.632118 -0.799305,-1.799553 -0.15329,0.208962 -0.709591,0.965019 -1.303797,2.085518 -0.590107,1.116821 -1.243313,2.638191 -1.428686,4.232826 -0.108315,0.838989 -1.79e-4,1.643234 0.243599,2.361199 -1.50432,-1.25692 -2.924809,-2.615197 -4.203295,-4.110428 -0.05163,-0.06245 -0.09792,-0.129227 -0.149189,-0.191971 0.974638,-1.04879 2.586798,-3.180176 2.660353,-5.49812 1.18e-4,-0.714698 0.0751,-1.469089 0.03803,-2.106193 -0.01277,-0.652374 -0.09387,-1.22139 -0.138615,-1.735027 -0.04438,-1.049088 -0.18359,-1.754876 -0.226963,-1.951004 -0.391188,0.302005 -3.070376,2.22015 -4.494309,5.21994 -0.353635,0.780178 -0.473179,1.583343 -0.44864,2.354484 0.0018,0.05901 0.01676,0.113549 0.02026,0.172127 -1.033577,-1.583698 -1.962646,-3.23608 -2.735868,-4.968971 -0.08247,-0.197792 -0.15127,-0.401466 -0.231123,-0.600445 1.231548,-0.690399 3.475761,-2.259186 4.228249,-4.482189 0.600563,-1.411751 0.849748,-2.688576 1.083663,-3.697197 0.263506,-1.013557 0.335694,-1.728436 0.35138,-1.928486 -0.475733,0.173256 -3.55817,1.193226 -5.859659,3.637013 -0.642035,0.732227 -1.017833,1.600158 -1.197682,2.459415 -0.502707,-1.741684 -0.888428,-3.517292 -1.104638,-5.324333 -0.06084,-0.343418 -0.09013,-0.69022 -0.111997,-1.037857 1.348773,-0.26891 4.05856,-1.086636 5.47061,-3.043042 1.832707,-2.356922 2.84145,-4.587471 3.030626,-4.962379 -0.502706,0.02525 -3.817812,0.07665 -6.655517,1.743999 -0.775957,0.437592 -1.32887,1.030552 -1.720354,1.680546 -0.0972,0.163986 -0.190187,0.331536 -0.276634,0.500809 9.49e-4,-0.01693 -7.14e-4,-0.03393 3.55e-4,-0.05086 0.01675,-0.864307 0.03809,-1.72879 0.146695,-2.587276 l 0.126256,-1.290844 c 0.05288,-0.428856 0.139566,-0.853016 0.207477,-1.279972 0.07908,-0.477932 0.191553,-0.949448 0.290598,-1.423695 1.344555,0.145149 4.188797,0.174622 6.201708,-1.263691 0.631223,-0.41632 1.13791,-0.866268 1.656007,-1.272842 0.513165,-0.408356 0.948021,-0.805603 1.305224,-1.165302 0.783501,-0.687725 1.253353,-1.232678 1.377886,-1.389115 -0.47716,-0.122097 -3.632498,-1.053066 -6.856043,-0.323395 -0.838223,0.198266 -1.573956,0.586899 -2.158062,1.08331 -0.20195,0.181156 -0.372055,0.38364 -0.544832,0.58369 0.715946,-2.189731 1.657432,-4.304359 2.781618,-6.320064 0.458563,0.208902 1.154012,0.484943 1.975183,0.685705 0.652672,0.162025 1.371054,0.273783 2.120453,0.291668 0.7633,0.0259 1.545614,-0.0473 2.285803,-0.290182 2.834677,-0.88938 4.928986,-2.163231 5.306686,-2.358111 -0.4386,-0.275209 -3.171974,-2.098409 -6.46973,-2.359893 -0.893656,-0.08805 -1.652679,0.111045 -2.367914,0.403484 -0.308956,0.131426 -0.596524,0.292677 -0.871258,0.462961 0.811546,-1.153835 1.694864,-2.2565124 2.640034,-3.3066084 0.481735,-0.05561 1.124365,-0.152638 1.836925,-0.318108 1.261494,-0.338188 2.684834,-0.892051 3.777708,-2.139463 1.029419,-1.192633 1.932701,-2.448185 2.621437,-3.519195 0.714047,-1.021576 1.193165,-1.86900899 1.321801,-2.10310199 -0.25911,-0.01343 -1.203032,-0.0511 -2.53921,0.09394 -1.302429,0.189829 -3.000978,0.593136 -4.576954,1.48221799 -1.680723,0.932218 -2.583469,2.502193 -2.952495,3.851442 -0.231657,0.746961 -0.29529,1.428032 -0.305035,1.931215 -1.000544,1.078497 -1.939237,2.213318 -2.802473,3.4056534 0.09958,-0.334862 0.189056,-0.682854 0.246986,-1.0531274 0.132851,-0.779461 0.113364,-1.668543 -0.02781,-2.553347 -0.620407,-3.410643 -1.98748,-6.48511799 -2.23221,-6.95972199 -0.415785,0.472525 -2.766825,3.95357499 -3.141672,7.77043499 -0.0934,1.011715 0.05442,1.893251 0.33498,2.6457384 0.29434,0.761519 0.73181,1.402604 1.175936,1.917849 0.57567,0.663008 1.173381,1.132029 1.587442,1.419239 -1.197027,2.070425 -2.208266,4.249519 -2.98654,6.514229 C 9.865141,20.198941 9.848501,19.917492 9.797171,19.62315 9.680184,18.835251 9.467242,18.019785 9.028285,17.200041 7.418741,14.129191 5.206612,11.595806 4.8087707,11.20468 4.7104387,11.516012 4.3485446,12.65832 4.0725627,14.192765 3.9691215,14.974722 3.8889709,15.854 3.8691859,16.766491 c -0.024954,0.91053 0.099757,1.887192 0.2678423,2.814892 0.3841162,1.979164 1.6726428,3.195561 2.7998588,3.903309 0.711016,0.440502 1.394048,0.70573 1.872158,0.858662 -0.110155,0.489696 -0.234272,0.976123 -0.323869,1.470276 -0.07754,0.442642 -0.17361,0.882846 -0.23558,1.327861 l -0.152755,1.340218 c -0.125722,0.892113 -0.162915,1.790642 -0.194286,2.69006 -0.0012,0.01545 5.9e-5,0.03084 -0.0011,0.04628 C 7.831345,31.039571 7.752087,30.860376 7.65934,30.681299 7.294653,29.963212 6.814582,29.2478 6.185915,28.599943 3.7109939,26.149145 0.8669897,24.401636 0.3812147,24.148469 c -0.06393,0.62962 -0.025549,4.831429 1.8312807,8.174935 1.6495309,2.766052 4.4161186,3.124321 5.7805776,3.148445 0.01765,0.365459 0.04296,0.730205 0.100411,1.091923 0.198445,1.904838 0.572342,3.783352 1.076,5.628654 C 8.583526,41.489313 7.847318,40.819948 6.84422,40.324724 3.8385477,38.701513 0.5358019,37.882303 0,37.784269 c 0.093816,0.312286 0.4498291,1.456554 1.084794,2.87704 0.6611671,1.413296 1.7851152,3.062947 3.0823174,4.405068 2.3548436,2.120926 5.0466866,1.689575 6.3816166,1.308548 0.08098,0.210686 0.159053,0.4225 0.242888,0.632053 0.795563,1.860691 1.76331,3.638439 2.845786,5.345547 -0.08241,-0.05228 -0.150794,-0.112534 -0.236767,-0.162445 -0.685467,-0.397484 -1.485785,-0.714874 -2.407307,-0.869476 -3.393175,-0.626053 -6.7469577,-0.442276 -7.2983264,-0.369553 0.181572,0.270752 0.8586025,1.259293 1.8827934,2.428513 0.533129,0.571868 1.21111,1.155204 1.924087,1.727485 0.73692,0.556954 1.464692,1.135948 2.357457,1.53254 2.801702,1.31063 5.203897,0.166664 6.392549,-0.599015 0.05288,0.06672 0.100352,0.137543 0.153647,0.203972 1.34806,1.626892 2.855768,3.108574 4.458481,4.482422 -0.799782,-0.190124 -1.673951,-0.284897 -2.635281,-0.158043 -1.76034,0.251976 -3.363468,0.611733 -4.642429,0.986107 -1.275694,0.370629 -2.189492,0.7333 -2.43636,0.839295 0.260712,0.196663 1.158884,0.977134 2.513836,1.754333 0.696579,0.368553 1.492617,0.749344 2.341356,1.08551 0.424281,0.168145 0.861693,0.325119 1.306174,0.464203 0.457613,0.123291 0.937803,0.210274 1.410328,0.283654 2.95915,0.455825 4.915498,-1.288475 5.859954,-2.391503 1.803118,1.204216 3.727145,2.206246 5.715399,3.067818 -0.772152,0.04777 -1.591243,0.22316 -2.419365,0.599495 -1.590652,0.73175 -3.058553,1.631706 -4.150299,2.334816 -1.104875,0.726227 -1.868414,1.340278 -2.072265,1.513832 0.559984,0.28186 4.493475,1.774956 8.309269,1.173027 2.008693,-0.292206 3.260677,-1.397202 4.056183,-2.55175 0.349121,-0.501099 0.601928,-0.98539 0.786293,-1.395531 3.311183,0.957229 6.748561,1.392204 10.193191,1.504738 3.44463,-0.112534 6.882008,-0.547509 10.193191,-1.504738 0.184365,0.410141 0.437172,0.894432 0.786293,1.39553 0.795506,1.154549 2.04749,2.259545 4.056183,2.551751 3.815796,0.601928 7.749344,-0.891167 8.309273,-1.173027 -0.203857,-0.173554 -0.967392,-0.787606 -2.072273,-1.513832 -1.091744,-0.70311 -2.559639,-1.603066 -4.150292,-2.334816 -0.828125,-0.376336 -1.647216,-0.551728 -2.419372,-0.599495 1.988258,-0.861573 3.912285,-1.863602 5.715401,-3.067818 0.944458,1.103027 2.90081,2.847328 5.859954,2.391502 0.472527,-0.07338 0.952721,-0.160362 1.410332,-0.283653 0.444481,-0.139084 0.881889,-0.296059 1.306168,-0.464203 0.848739,-0.336166 1.644783,-0.716957 2.341415,-1.08551 1.354897,-0.777199 2.253067,-1.557671 2.513779,-1.754334 -0.246865,-0.105995 -1.160668,-0.468666 -2.436356,-0.839294 -1.278961,-0.374374 -2.882095,-0.734131 -4.642433,-0.986107 -0.961327,-0.126854 -1.835495,-0.03208 -2.635277,0.158043 1.602707,-1.373848 3.11042,-2.85553 4.458481,-4.482422 0.05329,-0.06643 0.100769,-0.137253 0.153648,-0.203972 1.188645,0.765679 3.590844,1.909645 6.392548,0.599014 0.892761,-0.396591 1.620537,-0.975585 2.357452,-1.532539 0.712983,-0.572281 1.390961,-1.155617 1.924088,-1.727486 1.024193,-1.16922 1.701225,-2.15776 1.882797,-2.428512 -0.551369,-0.07272 -3.905151,-0.2565 -7.298332,0.369552 -0.921517,0.154602 -1.721832,0.471993 -2.407303,0.869477 -0.08598,0.04991 -0.154358,0.11016 -0.236771,0.162445 1.082482,-1.707108 2.050225,-3.484856 2.845787,-5.345547 0.08384,-0.209553 0.161912,-0.421367 0.24289,-0.632053 z"
     id="path2"
     style="fill:#fae9cd;fill-opacity:1" /></svg>
